<?xml version="1.0" encoding="utf-8"?>
<!-- Generator: Adobe Illustrator 16.0.0, SVG Export Plug-In . SVG Version: 6.00 Build 0)  -->
<!DOCTYPE svg PUBLIC "-//W3C//DTD SVG 1.1//EN" "http://www.w3.org/Graphics/SVG/1.1/DTD/svg11.dtd">
<svg version="1.1" id="Layer_1" xmlns="http://www.w3.org/2000/svg" xmlns:xlink="http://www.w3.org/1999/xlink" x="0px" y="0px"
	 width="95.199px" height="80.816px" viewBox="0 0 95.199 80.816" enable-background="new 0 0 95.199 80.816" xml:space="preserve">
<path fill="none" stroke="#6EBACE" stroke-width="2" stroke-miterlimit="10" d="M36.737,22.996l-8.418,13.676l-0.053,0.197
	c0,0-27.504,0.863-27.265,7.154c0.241,6.293,28.546,4.955,28.546,4.955l8.564,11.328c-5.639,0.848-9.72,3.021-9.693,5.473
	c0.118,2.9,6.119,5.063,13.479,4.715c1.259-0.049,2.456-0.154,3.639-0.389l6.895,9.063l10.172,0.563L49.417,47.965l29.208-4.012
	c0.693-0.096,1.393-0.055,1.952-0.145l5.35,11.402l7.797-0.307l-5.27-12.656l-0.195-5.281l2.98-10.953l-7.296,0.279l-3.672,12.871
	c-0.317-0.049-0.761-0.1-1.136-0.086L48.35,36.543l-0.02-0.51l10.07-34.846l-8.838,1.146L43.097,12.73
	c-1.455-0.131-3.042-0.258-4.674-0.195c-7.295,0.279-13.192,2.838-13.081,5.729C25.508,20.846,30.438,22.855,36.737,22.996"/>
</svg>
