<?xml version="1.0" encoding="utf-8"?>
<!-- Generator: Adobe Illustrator 16.0.0, SVG Export Plug-In . SVG Version: 6.00 Build 0)  -->
<!DOCTYPE svg PUBLIC "-//W3C//DTD SVG 1.1//EN" "http://www.w3.org/Graphics/SVG/1.1/DTD/svg11.dtd">
<svg version="1.1" id="Layer_1" xmlns="http://www.w3.org/2000/svg" xmlns:xlink="http://www.w3.org/1999/xlink" x="0px" y="0px"
	 width="73.847px" height="91.375px" viewBox="0 0 73.847 91.375" enable-background="new 0 0 73.847 91.375" xml:space="preserve">
<path fill="none" stroke="#BD396B" stroke-width="3" stroke-miterlimit="10" d="M54.498,72.99c-2.082,1.251-3.995,1.882-4.269,1.419
	c-0.283-0.451,1.178-1.851,3.259-3.101c2.082-1.251,3.995-1.882,4.269-1.42C58.041,70.351,56.579,71.739,54.498,72.99
	 M65.157,66.777c-1.661-2.755-5.246-3.648-8.01-1.986c-1.199,0.714-2.04,1.797-2.482,3.017c-0.472,0.946-1.208,1.776-2.185,2.354
	c-0.979,0.589-2.051,0.852-3.113,0.831c-1.282-0.179-2.628,0.052-3.826,0.777c-2.764,1.661-3.659,5.246-1.998,8.011
	c0.893,1.482,2.333,2.418,3.9,2.723l-0.011,0.021c3.228,0.673,7.316-0.073,11.08-2.344c3.764-2.26,6.35-5.519,7.265-8.693
	l-0.042,0.01C66.198,69.972,66.05,68.259,65.157,66.777z M24.022,78.582c-0.705,0.222-2.082-2.196-3.07-5.393
	c-0.988-3.195-1.219-5.971-0.504-6.191s2.092,2.197,3.08,5.393C24.515,75.586,24.737,78.362,24.022,78.582z M27.828,75.124
	c-1.104-0.946-1.977-2.207-2.438-3.711c-0.464-1.492-0.453-3.027-0.084-4.437c0.672-1.66,0.799-3.542,0.231-5.382
	c-1.314-4.247-5.824-6.634-10.071-5.319c-2.271,0.705-4.005,2.323-4.93,4.331l-0.021-0.031c-1.976,4.1-2.313,9.818-0.525,15.61
	c1.787,5.793,5.298,10.334,9.24,12.595l0.01-0.053c1.892,1.124,4.227,1.492,6.497,0.788c4.247-1.313,6.633-5.824,5.319-10.07
	C30.487,77.605,29.31,76.123,27.828,75.124z M60.185,39.002c-3.764,1.367-5.888,0.726-9.535,2.229
	c-3.227,1.135-4.184,2.764-7.096,3.573c-1.462,0.41-3.007,0.505-4.573,0.589c1.661-0.63,2.912-1.492,3.647-2.145
	c1.84-1.619,6.382-3.049,7.212-3.458c2.103-1.115,10.86-4.826,13.204-9.419c1.902-3.732,3.259-9.64,2.89-11.575
	c-0.125-0.673-8.167,4.857-10.9,6.666c-3.344,2.208-5.551,2.081-8.747,4.415c-2.87,1.85-3.417,3.668-6.044,5.141
	c-3.942,2.208-9.135,1.86-12.73,6.275c-0.264,0.315,0.599,3.89,3.563,4.573c0.683,0.158,1.345,0.263,1.987,0.315
	c-1.135,0.357-2.26,0.894-3.354,1.724c-0.326,0.252-0.336,3.931,2.386,5.288c5.288,2.639,9.892,1.198,11.848,0.179
	c2.165-1.146,6.917-1.461,7.821-1.661c0.389-0.105,0.978-0.232,1.713-0.39c-1.271,0.841-2.513,1.682-3.227,2.155
	c-2.334,1.545-3.879,1.461-6.118,3.101c-2.009,1.304-2.386,2.565-4.226,3.605c-2.755,1.546-6.391,1.314-8.904,4.405
	c-0.179,0.221,0.431,2.723,2.502,3.195c4.037,0.926,6.928-0.819,8.083-1.839c1.283-1.136,4.469-2.145,5.046-2.429
	c1.472-0.788,7.6-3.396,9.231-6.612c0.998-1.976,1.787-4.804,1.997-6.665c3.343-0.956,7.085-2.397,8.957-4.583
	c2.722-3.175,5.434-8.589,5.528-10.565C72.389,34.409,63.265,37.899,60.185,39.002z M21.562,24.79
	c2.975-3.847,6.077-6.423,6.938-5.771c0.851,0.663-0.872,4.321-3.836,8.168c-2.976,3.848-6.077,6.434-6.938,5.772
	C16.874,32.296,18.587,28.638,21.562,24.79z M22.571,42.031c1.713-2.208,2.502-4.847,2.438-7.443c0.2-2.113,0.978-4.195,2.366-5.992
	c1.398-1.808,3.217-3.081,5.204-3.816c2.534-0.588,4.888-2.019,6.602-4.237c3.942-5.108,3.007-12.457-2.113-16.41
	c-2.733-2.113-6.108-2.817-9.262-2.24l0.011-0.052C21.299,2.924,14.213,7.308,8.831,14.278c-5.393,6.969-7.842,14.938-7.243,21.519
	l0.073-0.042c0.232,3.195,1.766,6.276,4.499,8.389C11.271,48.086,18.619,47.15,22.571,42.031z"/>
</svg>
