<?xml version="1.0" encoding="utf-8"?>
<!-- Generator: Adobe Illustrator 16.0.0, SVG Export Plug-In . SVG Version: 6.00 Build 0)  -->
<!DOCTYPE svg PUBLIC "-//W3C//DTD SVG 1.1//EN" "http://www.w3.org/Graphics/SVG/1.1/DTD/svg11.dtd">
<svg version="1.1" id="Layer_1" xmlns="http://www.w3.org/2000/svg" xmlns:xlink="http://www.w3.org/1999/xlink" x="0px" y="0px"
	 width="82.281px" height="58.351px" viewBox="0 0 82.281 58.351" enable-background="new 0 0 82.281 58.351" xml:space="preserve">
<g>
	<path fill="#95B124" d="M5.282,41.23c-0.123-0.009-0.247-0.014-0.372-0.014c-2.708,0-4.91,2.195-4.91,4.893s2.203,4.893,4.91,4.893
		h6.376v-3.84H4.91c-0.591,0-1.07-0.473-1.07-1.053s0.479-1.053,1.07-1.053c0.216,0,0.418,0.062,0.6,0.182
		c0.56,0.369,1.27,0.42,1.874,0.135c0.605-0.284,1.019-0.863,1.092-1.528c0.158-1.45,1.353-2.548,2.811-2.636v-3.85
		C8.651,37.428,6.364,38.97,5.282,41.23z"/>
	<path fill="#95B124" d="M8.587,28.629c0.579,0,1.164-0.166,1.68-0.514L42.2,6.647l31.388,20.931
		c1.386,0.923,3.259,0.549,4.184-0.837c0.925-1.386,0.55-3.259-0.835-4.184L64.343,14.16V2.094c0-1.061-0.859-1.92-1.92-1.92h-7.067
		c-1.06,0-1.92,0.859-1.92,1.92v4.793l-9.567-6.38c-1.018-0.678-2.342-0.675-3.357,0.006L6.9,23.108
		c-1.383,0.93-1.75,2.804-0.82,4.187C6.663,28.162,7.616,28.629,8.587,28.629z M57.275,4.014h3.228v7.585l-3.228-2.152V4.014z"/>
	<path fill="#95B124" d="M71.335,40.878V28.383l-3.84-2.561V43.07C68.589,42.064,69.899,41.314,71.335,40.878z"/>
	<path fill="#95B124" d="M74.25,42.361c-3.292,0-6.15,1.966-7.383,4.836c-0.245-0.033-0.492-0.049-0.742-0.049
		c-3.1,0-5.623,2.513-5.623,5.601c0,3.089,2.523,5.602,5.623,5.602h8.125c4.429,0,8.031-3.587,8.031-7.995
		S78.68,42.361,74.25,42.361z M74.25,54.511h-8.125c-0.983,0-1.783-0.79-1.783-1.762c0-0.971,0.8-1.761,1.783-1.761
		c0.354,0,0.697,0.104,0.995,0.3c0.559,0.368,1.268,0.42,1.873,0.135c0.606-0.284,1.019-0.864,1.092-1.528
		c0.23-2.105,2.021-3.693,4.165-3.693c2.311,0,4.191,1.863,4.191,4.154S76.562,54.511,74.25,54.511z"/>
	<path fill="#95B124" d="M58.786,54.456h-41.74V25.872l-3.84,2.582v27.922c0,1.061,0.859,1.92,1.92,1.92H61.05
		C59.942,57.288,59.138,55.96,58.786,54.456z"/>
	<path fill="#95B124" d="M35.671,22.768c0.684,0.479,1.075,1.23,1.075,2.064c0,0.833-0.392,1.586-1.075,2.064
		c-0.62,0.435-0.771,1.29-0.336,1.91c0.266,0.381,0.691,0.584,1.124,0.584c0.271,0,0.546-0.08,0.785-0.248
		c1.406-0.984,2.245-2.595,2.245-4.311s-0.839-3.328-2.245-4.312c-0.683-0.478-1.074-1.23-1.074-2.064s0.392-1.586,1.074-2.064
		c0.621-0.435,0.771-1.29,0.337-1.91c-0.435-0.621-1.289-0.771-1.909-0.337c-1.406,0.984-2.245,2.596-2.245,4.312
		C33.427,20.172,34.266,21.784,35.671,22.768z"/>
	<path fill="#95B124" d="M41.137,22.767c0.683,0.479,1.074,1.231,1.074,2.065c0,0.833-0.392,1.586-1.074,2.064
		c-0.621,0.435-0.771,1.29-0.337,1.91c0.267,0.381,0.691,0.584,1.124,0.584c0.271,0,0.546-0.08,0.786-0.248
		c1.405-0.984,2.244-2.595,2.244-4.311s-0.839-3.328-2.244-4.312c-0.684-0.478-1.075-1.23-1.075-2.064s0.392-1.586,1.075-2.064
		c0.62-0.435,0.771-1.29,0.337-1.91c-0.435-0.621-1.29-0.771-1.91-0.337c-1.405,0.984-2.244,2.596-2.244,4.312
		C38.892,20.172,39.731,21.784,41.137,22.767z"/>
	<path fill="#95B124" d="M46.602,22.767c0.683,0.479,1.074,1.231,1.074,2.065c0,0.833-0.392,1.586-1.074,2.064
		c-0.621,0.435-0.771,1.29-0.337,1.91c0.266,0.381,0.692,0.584,1.124,0.584c0.271,0,0.546-0.08,0.785-0.248
		c1.406-0.984,2.245-2.595,2.245-4.311s-0.839-3.328-2.245-4.312c-0.683-0.478-1.074-1.23-1.074-2.064s0.392-1.586,1.074-2.064
		c0.621-0.435,0.771-1.29,0.337-1.91c-0.434-0.621-1.289-0.771-1.909-0.337c-1.405,0.984-2.245,2.596-2.245,4.312
		C44.356,20.172,45.196,21.784,46.602,22.767z"/>
	<path fill="#95B124" d="M50.12,31.505c-1.05,0-2.006,0.4-2.732,1.051c-0.727-0.651-1.683-1.051-2.732-1.051s-2.006,0.4-2.732,1.051
		c-0.727-0.651-1.682-1.051-2.732-1.051c-1.05,0-2.006,0.4-2.732,1.051c-0.726-0.651-1.682-1.051-2.732-1.051
		c-2.263,0-4.104,1.841-4.104,4.104v12.014c0,2.263,1.841,4.104,4.104,4.104c1.051,0,2.006-0.399,2.732-1.05
		c0.727,0.65,1.683,1.05,2.732,1.05c1.051,0,2.006-0.399,2.732-1.05c0.727,0.65,1.683,1.05,2.732,1.05s2.006-0.399,2.732-1.05
		c0.727,0.65,1.683,1.05,2.732,1.05c2.263,0,4.104-1.841,4.104-4.104V35.609C54.224,33.346,52.383,31.505,50.12,31.505z
		 M33.726,48.984c-0.75,0-1.36-0.61-1.36-1.36V35.609c0-0.751,0.61-1.361,1.36-1.361c0.751,0,1.361,0.61,1.361,1.361v12.014
		C35.087,48.374,34.477,48.984,33.726,48.984z M39.19,48.984c-0.751,0-1.361-0.61-1.361-1.36V35.609c0-0.751,0.61-1.361,1.361-1.361
		c0.75,0,1.36,0.61,1.36,1.361v12.014C40.552,48.374,39.941,48.984,39.19,48.984z M44.655,48.984L44.655,48.984
		c-0.751,0-1.361-0.61-1.361-1.36V35.609c0-0.751,0.611-1.361,1.361-1.361s1.36,0.61,1.36,1.361v12.014
		C46.017,48.374,45.405,48.984,44.655,48.984z M51.481,47.623c0,0.75-0.61,1.361-1.36,1.361c-0.751,0-1.361-0.611-1.361-1.361
		V35.609c0-0.751,0.61-1.361,1.361-1.361c0.75,0,1.36,0.61,1.36,1.361V47.623z"/>
</g>
</svg>
