<?xml version="1.0" encoding="utf-8"?>
<!-- Generator: Adobe Illustrator 16.0.0, SVG Export Plug-In . SVG Version: 6.00 Build 0)  -->
<!DOCTYPE svg PUBLIC "-//W3C//DTD SVG 1.1//EN" "http://www.w3.org/Graphics/SVG/1.1/DTD/svg11.dtd">
<svg version="1.1" id="Layer_1" xmlns="http://www.w3.org/2000/svg" xmlns:xlink="http://www.w3.org/1999/xlink" x="0px" y="0px"
	 width="43.185px" height="79.488px" viewBox="0 0 43.185 79.488" enable-background="new 0 0 43.185 79.488" xml:space="preserve">
<g>
	<path fill="#F89C06" d="M43.163,35.465l-1.234-5.293c-0.089-0.353-0.354-0.618-0.618-0.706c-0.353-0.088-0.706,0-0.882,0.265
		c0,0,0,0-0.089,0.088c-1.234-3.882-5.381-12.792-18.791-12.792c-0.353,0-0.794,0-1.147,0l-0.264-3.793l-2.912,0.353l0.264,3.793
		C6.374,19.056,3.286,27.702,2.493,30.702c-0.265-0.177-0.529-0.177-0.794-0.177c-0.353,0.089-0.529,0.353-0.617,0.707l-1.059,5.117
		c-0.088,0.353,0.088,0.706,0.441,0.97c0.088,0.088,0.618,0.441,1.853,0.882l5.117,34.143c0.088,0.354,0.265,0.616,0.618,0.706
		c0,0,0.176,0.088,0.529,0.176l0.706,4.059c0.088,0.353,0.265,0.618,0.617,0.705c0.177,0.089,4.853,1.5,11.469,1.5
		c6.705,0,11.292-1.411,11.469-1.5c0.353-0.087,0.529-0.353,0.618-0.705l0.706-4.059c0.265-0.088,0.441-0.088,0.529-0.176
		c0.353-0.09,0.618-0.353,0.618-0.706L40.428,38.2c0-0.176,0-0.264,0-0.44c1.5-0.706,2.205-1.235,2.293-1.324
		C43.075,36.17,43.25,35.818,43.163,35.465z M21.46,18.879c13.057,0,16.41,8.911,17.204,11.998
		c-0.353,0.176-0.706,0.354-1.146,0.529c0,0-0.089,0-0.089-0.088c-0.265-0.088-5.646-1.412-16.056-1.412c-0.088,0-0.088,0-0.176,0
		l-0.441-7.587c0.176,0,0.353,0,0.529,0c2.206,0,6-0.176,6-1.412c0-1.235-3.794-1.411-6-1.411c-0.265,0-0.529,0-0.706,0
		l-0.088-0.618C20.843,18.967,21.107,18.879,21.46,18.879z M21.548,33.965l-0.265-3.088h0.088c7.499,0,12.439,0.794,14.645,1.147
		C33.193,32.995,28.606,33.877,21.548,33.965z M33.546,38.023c-0.97,0.265-2.117,0.441-3.264,0.618l-0.265-3.44
		c1.147-0.177,2.206-0.353,3.088-0.529L33.546,38.023z M29.4,38.818c-1.059,0.088-2.117,0.264-3.264,0.353v-3.529
		c1.059-0.088,2.117-0.176,2.999-0.264L29.4,38.818z M25.165,35.641v3.529c-0.97,0.088-2.028,0.088-3.176,0.088v-3.44
		C23.137,35.73,24.195,35.73,25.165,35.641z M37.076,33.612l0.706,3.265c-0.972,0.353-2.03,0.706-3.353,0.97l-0.441-3.353
		C35.223,34.23,36.193,33.877,37.076,33.612z M20.667,21.438l-0.088-0.881c0.265,0,0.441,0,0.706,0c2.47,0,4.058,0.264,4.764,0.44
		c-0.706,0.177-2.293,0.441-4.764,0.441C21.019,21.438,20.843,21.438,20.667,21.438z M21.107,35.818v3.44
		c-1.147,0-2.118,0-3.176-0.088v-3.44C18.902,35.818,19.96,35.818,21.107,35.818z M18.637,33.965
		c-5.293-0.088-8.999-0.706-11.469-1.324c2.205-0.617,6.087-1.499,11.204-1.764L18.637,33.965z M17.049,35.73v3.352
		c-1.147-0.088-2.206-0.176-3.265-0.264l0.265-3.353C14.932,35.641,15.902,35.73,17.049,35.73z M13.08,35.465l-0.265,3.264
		c-1.235-0.177-2.293-0.353-3.264-0.53l0.441-3.176C10.961,35.201,11.932,35.377,13.08,35.465z M9.109,34.936l-0.441,3.176
		c-1.235-0.265-2.293-0.529-3.176-0.794l0.441-3.087C6.815,34.495,7.874,34.671,9.109,34.936z M17.755,21.173
		c-0.529-0.088-0.97-0.177-1.235-0.265c0.265-0.088,0.706-0.176,1.235-0.264V21.173z M17.667,19.232v0.617
		c-1.324,0.177-2.382,0.529-2.382,1.147c0,0.618,1.146,0.97,2.559,1.147l0.529,7.851c-6.529,0.265-11.028,1.588-12.792,2.206
		c-0.529-0.177-1.059-0.353-1.412-0.529C4.522,29.819,6.639,20.908,17.667,19.232z M2.051,35.995l0.618-3.088
		c0.529,0.265,1.324,0.617,2.382,0.971L4.61,37.053C3.375,36.612,2.493,36.259,2.051,35.995z M31.871,76.312
		c-1.324,0.353-5.294,1.234-10.411,1.234s-9.087-0.882-10.41-1.234l-0.529-2.735c2.381,0.442,6.264,1.06,10.939,1.06
		c4.587,0,8.558-0.617,10.94-1.06L31.871,76.312z M33.723,71.459c-1.588,0.353-6.439,1.412-12.263,1.412
		c-5.91,0-10.675-1.06-12.263-1.412L4.345,38.906c2.912,0.971,7.764,1.941,14.822,2.206l1.853,26.466l2.823-0.177l-1.941-26.29
		c7.94-0.088,13.41-1.323,16.674-2.559L33.723,71.459z M38.664,36.524l-0.706-3.264c1.147-0.441,1.941-0.882,2.559-1.235
		l0.794,3.265C40.781,35.553,39.899,35.995,38.664,36.524z"/>
	<path fill="#F89C06" d="M15.285,9.263l2.117-1.94c-0.353-0.265-0.617-0.53-1.059-0.794L6.463,0L4.874,2.382l9.881,6.528
		C15.021,8.999,15.108,9.175,15.285,9.263z"/>
	<path fill="#F89C06" d="M17.138,12.351l2.823-0.264c-0.088-0.529-0.176-0.971-0.353-1.412l-2.647,1.059
		C17.049,11.999,17.049,12.175,17.138,12.351z"/>
	<path fill="#F89C06" d="M16.431,10.675l2.647-1.147c-0.265-0.441-0.53-0.882-0.882-1.323l-2.117,1.941
		C16.255,10.322,16.343,10.499,16.431,10.675z"/>
</g>
</svg>
