<?xml version="1.0" encoding="utf-8"?>
<!-- Generator: Adobe Illustrator 16.0.0, SVG Export Plug-In . SVG Version: 6.00 Build 0)  -->
<!DOCTYPE svg PUBLIC "-//W3C//DTD SVG 1.1//EN" "http://www.w3.org/Graphics/SVG/1.1/DTD/svg11.dtd">
<svg version="1.1" id="Layer_1" xmlns="http://www.w3.org/2000/svg" xmlns:xlink="http://www.w3.org/1999/xlink" x="0px" y="0px"
	 width="230px" height="265px" viewBox="0 0 230 265" enable-background="new 0 0 230 265" xml:space="preserve">
<path fill="#4BBD98" d="M125.656,79.273c-4.354,0-8.563,0.57-12.613,1.557l1.92,1.289l7.543,1.084L126,82.418l6.523,0.813
	l1.311,1.789l-4.539-0.625l-4.658,1.992l1.336,3.551l4.805,2.236l0.635-4.498l4.553-0.299l6.498,6.344l1.84,2.479l0.875,1.586
	l-5.043,2.031l-7.611,3.539l-0.621,3.457l-5.041,4.85l0.197,4.676l-1.521-0.027l-0.609-3.941l-2.885-0.977l-8.299,0.459
	l-3.334,6.262l2.898,3.578l4.805-2.684l0.33,4.365l1.84,1.49l3.295,3.863l-0.172,4.891l6.074,1.451l4.459-3.268l2.025,0.693
	l7.479,3.051l10.48,4.021l2.186,5.369l7.463,3.725l1.707,6.563l-5.096,5.826l-6.008,6.451l-6.365,3.375l-6.551,4.473l-8.736,5.814
	l-4.83,5.041l-1.721-1.912l3.879-10.07l0.98-11.668l-8.354-7.777l0.055-6.533l2.184-2.684l2.566-7.781l-5.188-2.951l-3.492-5.814
	l-5.467-2.156l-8.563-4.717l-3.494-9.84l-1.734,4.906l-2.619-8.037L97.6,97.094l4.354-4.025l-1.297-2.684l3.045-4.92l-5.943,1.75
	c-15.895,9.73-26.574,27.482-26.574,47.826c0,30.805,24.391,55.77,54.473,55.77c30.08,0,54.459-24.965,54.459-55.77
	S155.736,79.273,125.656,79.273"/>
</svg>
