<?xml version="1.0" encoding="utf-8"?>
<!-- Generator: Adobe Illustrator 16.0.0, SVG Export Plug-In . SVG Version: 6.00 Build 0)  -->
<!DOCTYPE svg PUBLIC "-//W3C//DTD SVG 1.1//EN" "http://www.w3.org/Graphics/SVG/1.1/DTD/svg11.dtd">
<svg version="1.1" id="Layer_1" xmlns="http://www.w3.org/2000/svg" xmlns:xlink="http://www.w3.org/1999/xlink" x="0px" y="0px"
	 width="100px" height="100px" viewBox="0 0 100 100" enable-background="new 0 0 100 100" xml:space="preserve">
<path fill="#4BBD98" d="M50.006,0c-3.997,0-7.86,0.511-11.579,1.396l1.762,1.156l6.925,0.972l3.208-0.704l5.989,0.729l1.203,1.604
	l-4.167-0.561L49.07,6.377l1.227,3.184l4.41,2.005l0.583-4.033l4.18-0.268l5.965,5.688l1.689,2.222l0.803,1.422l-4.629,1.821
	l-6.987,3.173l-0.57,3.1l-4.628,4.348l0.181,4.192l-1.396-0.024l-0.56-3.534l-2.648-0.875l-7.619,0.412l-3.061,5.614l2.661,3.208
	l4.411-2.406l0.303,3.914l1.689,1.336l3.025,3.464l-0.158,4.385l5.576,1.301l4.094-2.929l1.859,0.622l6.865,2.735l9.621,3.606
	l2.007,4.813l6.851,3.34l1.567,5.883l-4.679,5.224l-5.515,5.784l-5.844,3.026l-6.014,4.01l-8.02,5.213l-4.435,4.52l-1.579-1.714
	l3.561-9.029l0.9-10.461l-7.669-6.973l0.05-5.857l2.005-2.406l2.356-6.977l-4.762-2.646l-3.206-5.213l-5.019-1.933l-7.86-4.229
	l-3.208-8.822l-1.592,4.399l-2.404-7.206l0.801-10.825l3.997-3.609l-1.19-2.406l2.795-4.411L24.396,7.12
	C9.804,15.844,0,31.76,0,49.999C0,77.617,22.391,100,50.006,100C77.62,100,100,77.617,100,49.999S77.62,0,50.006,0"/>
</svg>
