<?xml version="1.0" encoding="utf-8"?>
<!-- Generator: Adobe Illustrator 16.0.0, SVG Export Plug-In . SVG Version: 6.00 Build 0)  -->
<!DOCTYPE svg PUBLIC "-//W3C//DTD SVG 1.1//EN" "http://www.w3.org/Graphics/SVG/1.1/DTD/svg11.dtd">
<svg version="1.1" id="Layer_1" xmlns="http://www.w3.org/2000/svg" xmlns:xlink="http://www.w3.org/1999/xlink" x="0px" y="0px"
	 width="70.904px" height="128.823px" viewBox="0 0 70.904 128.823" enable-background="new 0 0 70.904 128.823"
	 xml:space="preserve">
<path fill="none" stroke="#A1DBC6" stroke-width="2" stroke-miterlimit="10" d="M43.213,50.896c-0.93,3.763,1.934,7.132,3.443,7.425
	c1.924,0.361,4.46-1.48,5.391-5.243c0.929-3.763-0.498-6.504-2.931-7.106C46.672,45.37,44.143,47.133,43.213,50.896"/>
<path fill-rule="evenodd" clip-rule="evenodd" fill="none" stroke="#A1DBC6" stroke-width="2" stroke-miterlimit="10" d="
	M54.155,53.429c0.588-1.55,2.16-2.389,3.525-1.882c1.362,0.518,1.982,2.196,1.395,3.746c-0.577,1.553-2.163,2.401-3.524,1.882
	C54.186,56.667,53.564,54.989,54.155,53.429"/>
<path fill-rule="evenodd" clip-rule="evenodd" fill="none" stroke="#A1DBC6" stroke-width="2" stroke-miterlimit="10" d="
	M60.188,56.729c0.84-1.101,2.299-1.389,3.255-0.652c0.955,0.737,1.056,2.218,0.215,3.318c-0.838,1.09-2.299,1.389-3.266,0.649
	C59.436,59.307,59.347,57.829,60.188,56.729"/>
<path fill-rule="evenodd" clip-rule="evenodd" fill="none" stroke="#A1DBC6" stroke-width="2" stroke-miterlimit="10" d="
	M63.667,61.705c0.841-1.1,2.299-1.388,3.255-0.651c0.966,0.739,1.056,2.217,0.216,3.317c-0.838,1.09-2.297,1.377-3.255,0.652
	C62.926,64.287,62.829,62.794,63.667,61.705"/>
<path fill-rule="evenodd" clip-rule="evenodd" fill="none" stroke="#A1DBC6" stroke-width="2" stroke-miterlimit="10" d="
	M66.059,67.813c0.8-1.031,2.19-1.313,3.097-0.611c0.91,0.691,1.005,2.102,0.201,3.144c-0.792,1.043-2.182,1.326-3.088,0.625
	C65.351,70.266,65.266,68.857,66.059,67.813"/>
<path fill="none" stroke="#A1DBC6" stroke-width="2" stroke-miterlimit="10" d="M65.083,73.328
	c-2.809-11.74-13.825-13.79-19.485-12.937c-2.8,0.423-6.649,4.033-7.613,7.935c-1.195,4.835,1.124,9.719,5.322,11.974
	c0.051,0.023,0.102,0.047,0.167,0.063c5.229,1.622-1.108,21.565-5.104,22.682c-2.529,0.706-4.859,2.724-6.629,4.686
	c-2.892,3.233-4.474,7.472-4.108,11.793c0.29,3.291,1.635,6.683,5.669,7.896c9.419,2.806,12.858-9.778,13.932-15.598
	c0.375-2.023,1.114-3.956,2.173-5.708l11-18.143C64.264,81.156,66.001,77.161,65.083,73.328"/>
<path fill="none" stroke="#A1DBC6" stroke-width="2" stroke-miterlimit="10" d="M32.768,7.896c-0.622,3.826-4.578,5.8-6.082,5.479
	c-1.911-0.423-3.521-3.112-2.899-6.938c0.622-3.825,3.011-5.787,5.484-5.385C31.756,1.456,33.39,4.071,32.768,7.896"/>
<path fill-rule="evenodd" clip-rule="evenodd" fill="none" stroke="#A1DBC6" stroke-width="2" stroke-miterlimit="10" d="
	M21.71,5.931c0.067-1.655-1.049-3.045-2.503-3.114c-1.457-0.058-2.686,1.242-2.753,2.897c-0.079,1.654,1.047,3.057,2.502,3.115
	C20.411,8.897,21.641,7.598,21.71,5.931"/>
<path fill-rule="evenodd" clip-rule="evenodd" fill="none" stroke="#A1DBC6" stroke-width="2" stroke-miterlimit="10" d="
	M14.866,6.598c-0.341-1.343-1.57-2.181-2.737-1.878c-1.168,0.303-1.842,1.625-1.501,2.967c0.343,1.332,1.57,2.18,2.749,1.878
	C14.545,9.264,15.208,7.939,14.866,6.598"/>
<path fill-rule="evenodd" clip-rule="evenodd" fill="none" stroke="#A1DBC6" stroke-width="2" stroke-miterlimit="10" d="
	M9.712,9.809c-0.341-1.342-1.57-2.18-2.737-1.876c-1.179,0.3-1.842,1.624-1.501,2.966c0.343,1.332,1.572,2.168,2.738,1.877
	C9.38,12.474,10.055,11.141,9.712,9.809"/>
<path fill-rule="evenodd" clip-rule="evenodd" fill="none" stroke="#A1DBC6" stroke-width="2" stroke-miterlimit="10" d="
	M5.114,14.488c-0.331-1.262-1.498-2.067-2.608-1.778c-1.108,0.279-1.75,1.539-1.419,2.813c0.319,1.271,1.486,2.076,2.596,1.786
	C4.804,17.021,5.434,15.759,5.114,14.488"/>
<path fill="none" stroke="#A1DBC6" stroke-width="2" stroke-miterlimit="10" d="M3.847,19.942
	c7.192-9.694,18.129-7.255,22.999-4.249c2.411,1.489,4.533,6.32,3.888,10.287c-0.799,4.916-4.849,8.497-9.594,8.923
	c-0.057,0.001-0.113,0.004-0.178-0.007c-5.447-0.561-7.446,20.269-4.21,22.865c2.049,1.643,3.399,4.413,4.257,6.913
	c1.391,4.108,1.182,8.627-0.852,12.458c-1.558,2.913-4.127,5.505-8.314,5.037c-9.764-1.118-7.987-14.042-6.69-19.815
	c0.45-2.008,0.529-4.077,0.243-6.103L2.399,35.247C1.528,27.464,1.498,23.107,3.847,19.942"/>
</svg>
