<?xml version="1.0" encoding="utf-8"?>
<!-- Generator: Adobe Illustrator 16.0.0, SVG Export Plug-In . SVG Version: 6.00 Build 0)  -->
<!DOCTYPE svg PUBLIC "-//W3C//DTD SVG 1.1//EN" "http://www.w3.org/Graphics/SVG/1.1/DTD/svg11.dtd">
<svg version="1.1" id="Layer_1" xmlns="http://www.w3.org/2000/svg" xmlns:xlink="http://www.w3.org/1999/xlink" x="0px" y="0px"
	 width="111.77px" height="204.041px" viewBox="0 0 111.77 204.041" enable-background="new 0 0 111.77 204.041"
	 xml:space="preserve">
<path fill="none" stroke="#A1DBC6" stroke-width="2" stroke-miterlimit="10" d="M68.249,80.488
	c-1.481,5.995,3.081,11.362,5.485,11.83c3.066,0.576,7.106-2.357,8.588-8.352c1.48-5.994-0.792-10.362-4.669-11.32
	C73.759,71.685,69.73,74.494,68.249,80.488"/>
<path fill-rule="evenodd" clip-rule="evenodd" fill="none" stroke="#A1DBC6" stroke-width="2" stroke-miterlimit="10" d="
	M85.68,84.524c0.937-2.469,3.441-3.806,5.615-2.998c2.17,0.826,3.158,3.498,2.222,5.967c-0.919,2.473-3.446,3.824-5.615,2.998
	C85.729,89.682,84.74,87.01,85.68,84.524"/>
<path fill-rule="evenodd" clip-rule="evenodd" fill="none" stroke="#A1DBC6" stroke-width="2" stroke-miterlimit="10" d="
	M95.291,89.78c1.339-1.754,3.664-2.212,5.186-1.039c1.521,1.173,1.682,3.533,0.343,5.286c-1.334,1.736-3.663,2.212-5.202,1.034
	C94.094,93.888,93.952,91.533,95.291,89.78"/>
<path fill-rule="evenodd" clip-rule="evenodd" fill="none" stroke="#A1DBC6" stroke-width="2" stroke-miterlimit="10" d="
	M100.833,97.709c1.339-1.752,3.663-2.211,5.185-1.038c1.54,1.177,1.682,3.532,0.344,5.285c-1.335,1.736-3.66,2.194-5.186,1.039
	C99.654,101.821,99.498,99.444,100.833,97.709"/>
<path fill-rule="evenodd" clip-rule="evenodd" fill="none" stroke="#A1DBC6" stroke-width="2" stroke-miterlimit="10" d="
	M104.645,107.44c1.274-1.643,3.489-2.092,4.934-0.974c1.449,1.101,1.601,3.348,0.321,5.008c-1.263,1.663-3.476,2.113-4.92,0.995
	C103.516,111.346,103.381,109.103,104.645,107.44"/>
<path fill="none" stroke="#A1DBC6" stroke-width="2" stroke-miterlimit="10" d="M103.089,116.225
	c-4.475-18.702-22.024-21.968-31.04-20.608c-4.462,0.674-10.594,6.424-12.129,12.641c-1.904,7.702,1.791,15.483,8.478,19.075
	c0.082,0.038,0.163,0.076,0.266,0.101c8.331,2.584-1.767,34.355-8.132,36.135c-4.03,1.125-7.741,4.339-10.561,7.466
	c-4.607,5.15-7.127,11.902-6.544,18.787c0.461,5.242,2.605,10.647,9.032,12.579c15.005,4.47,20.484-15.578,22.195-24.849
	c0.597-3.223,1.775-6.303,3.461-9.093l17.525-28.903C101.785,128.696,104.553,122.33,103.089,116.225"/>
<path fill="none" stroke="#A1DBC6" stroke-width="2" stroke-miterlimit="10" d="M51.609,11.987c-0.991,6.095-7.294,9.24-9.689,8.727
	c-3.044-0.674-5.609-4.958-4.619-11.053c0.991-6.094,4.797-9.219,8.737-8.578C49.998,1.727,52.6,5.892,51.609,11.987"/>
<path fill-rule="evenodd" clip-rule="evenodd" fill="none" stroke="#A1DBC6" stroke-width="2" stroke-miterlimit="10" d="
	M33.993,8.855c0.107-2.637-1.67-4.851-3.987-4.961c-2.32-0.092-4.279,1.978-4.387,4.616c-0.125,2.635,1.668,4.87,3.987,4.962
	C31.923,13.581,33.882,11.511,33.993,8.855"/>
<path fill-rule="evenodd" clip-rule="evenodd" fill="none" stroke="#A1DBC6" stroke-width="2" stroke-miterlimit="10" d="
	M23.09,9.917c-0.544-2.138-2.501-3.473-4.361-2.991s-2.934,2.589-2.391,4.727c0.546,2.121,2.501,3.473,4.379,2.993
	C22.578,14.165,23.634,12.056,23.09,9.917"/>
<path fill-rule="evenodd" clip-rule="evenodd" fill="none" stroke="#A1DBC6" stroke-width="2" stroke-miterlimit="10" d="
	M14.879,15.034c-0.543-2.138-2.501-3.473-4.361-2.99c-1.878,0.478-2.934,2.587-2.391,4.726c0.546,2.121,2.504,3.454,4.362,2.991
	C14.351,19.279,15.426,17.154,14.879,15.034"/>
<path fill-rule="evenodd" clip-rule="evenodd" fill="none" stroke="#A1DBC6" stroke-width="2" stroke-miterlimit="10" d="
	M7.554,22.487c-0.527-2.011-2.387-3.293-4.155-2.833c-1.765,0.444-2.787,2.452-2.261,4.481c0.508,2.024,2.367,3.307,4.135,2.845
	C7.059,26.523,8.064,24.513,7.554,22.487"/>
<path fill="none" stroke="#A1DBC6" stroke-width="2" stroke-miterlimit="10" d="M5.536,31.177
	c11.458-15.444,28.881-11.559,36.639-6.769c3.84,2.372,7.221,10.068,6.193,16.389c-1.272,7.832-7.725,13.537-15.285,14.215
	c-0.09,0.003-0.179,0.007-0.284-0.01c-8.677-0.894-11.863,32.291-6.707,36.426c3.265,2.617,5.416,7.03,6.782,11.012
	c2.215,6.544,1.883,13.744-1.356,19.848c-2.482,4.64-6.576,8.77-13.246,8.023C2.718,128.53,5.548,107.941,7.615,98.743
	c0.716-3.199,0.842-6.494,0.386-9.722L3.229,55.558C1.841,43.159,1.794,36.219,5.536,31.177"/>
</svg>
